<?xml version="1.0" encoding="UTF-8"?>
<!DOCTYPE svg PUBLIC "-//W3C//DTD SVG 1.1//EN" "http://www.w3.org/Graphics/SVG/1.1/DTD/svg11.dtd">
<svg xmlns="http://www.w3.org/2000/svg" version="1.1" width="50px" height="28px" style="shape-rendering:geometricPrecision; text-rendering:geometricPrecision; image-rendering:optimizeQuality; fill-rule:evenodd; clip-rule:evenodd" xmlns:xlink="http://www.w3.org/1999/xlink">
<g><path style="opacity:0.745" fill="#fffefe" d="M 49.5,13.5 C 49.5,14.5 49.5,15.5 49.5,16.5C 46.6085,17.4025 43.6085,17.7359 40.5,17.5C 40.6567,16.1266 40.49,14.7932 40,13.5C 38.549,15.4641 36.7157,16.7974 34.5,17.5C 33.5423,16.0384 32.3756,14.7051 31,13.5C 29.6244,14.7051 28.4577,16.0384 27.5,17.5C 24.6062,17.9577 22.1062,17.291 20,15.5C 17.8567,18.3248 15.19,20.3248 12,21.5C 11.1667,21.1667 10.3333,20.8333 9.5,20.5C 10.3128,19.1861 11.3128,18.0195 12.5,17C 8.02336,16.4257 3.69003,16.9257 -0.5,18.5C -0.5,17.5 -0.5,16.5 -0.5,15.5C 3.08007,13.5924 6.08007,10.9257 8.5,7.5C 10.483,9.98375 12.6496,12.3171 15,14.5C 15.6924,13.9747 16.1924,13.3081 16.5,12.5C 15.1667,11.1667 13.8333,9.83333 12.5,8.5C 15.0673,7.14648 17.4006,7.47981 19.5,9.5C 21.3733,7.27899 23.7067,5.94565 26.5,5.5C 27.5,5.83333 28.5,6.16667 29.5,6.5C 27.0163,8.48298 24.6829,10.6496 22.5,13C 23,13.5 23.5,14 24,14.5C 26.3333,12.1667 28.6667,9.83333 31,7.5C 33.6887,12.453 36.522,12.6197 39.5,8C 46.5391,6.58971 47.2058,7.92304 41.5,12C 44.2538,12.2724 46.9205,12.7724 49.5,13.5 Z"/></g>
<g><path style="opacity:0.776" fill="#ca271c" d="M 34.5,17.5 C 32.1667,17.5 29.8333,17.5 27.5,17.5C 28.4577,16.0384 29.6244,14.7051 31,13.5C 32.3756,14.7051 33.5423,16.0384 34.5,17.5 Z"/></g>
</svg>
