<?xml version="1.0" encoding="UTF-8"?>
<!DOCTYPE svg PUBLIC "-//W3C//DTD SVG 1.1//EN" "http://www.w3.org/Graphics/SVG/1.1/DTD/svg11.dtd">
<svg xmlns="http://www.w3.org/2000/svg" version="1.1" width="50px" height="28px" style="shape-rendering:geometricPrecision; text-rendering:geometricPrecision; image-rendering:optimizeQuality; fill-rule:evenodd; clip-rule:evenodd" xmlns:xlink="http://www.w3.org/1999/xlink">
<g><path style="opacity:0.371" fill="#f4f8fa" d="M 7.5,8.5 C 7.7352,7.90326 8.2352,7.56993 9,7.5C 11.2435,9.18376 13.7435,10.1838 16.5,10.5C 16.5,10.8333 16.5,11.1667 16.5,11.5C 15.8333,11.5 15.5,11.8333 15.5,12.5C 15.1667,12.5 14.8333,12.5 14.5,12.5C 13.5967,10.3796 12.2633,10.0462 10.5,11.5C 10.1667,11.5 9.83333,11.5 9.5,11.5C 9.71481,9.82124 9.04814,8.82124 7.5,8.5 Z"/></g>
<g><path style="opacity:0.465" fill="#eaf1f5" d="M -0.5,7.5 C 2.23725,7.40132 4.90391,7.73465 7.5,8.5C 7.73731,9.79105 7.40397,10.791 6.5,11.5C 5.08041,8.65109 3.08041,7.98442 0.5,9.5C 0.67158,10.4916 0.338246,11.1583 -0.5,11.5C -0.5,10.1667 -0.5,8.83333 -0.5,7.5 Z"/></g>
<g><path style="opacity:0.333" fill="#fafcfd" d="M 22.5,10.5 C 27.5,10.5 32.5,10.5 37.5,10.5C 36.0413,10.4326 34.7079,10.7659 33.5,11.5C 32.8333,10.1667 32.1667,10.1667 31.5,11.5C 30.7784,11.9175 30.2784,12.5842 30,13.5C 29.7216,12.5842 29.2216,11.9175 28.5,11.5C 27.6522,10.375 26.6522,10.375 25.5,11.5C 24.791,10.596 23.791,10.2627 22.5,10.5 Z"/></g>
<g><path style="opacity:0.328" fill="#ccdde6" d="M 49.5,9.5 C 49.5,10.5 49.5,11.5 49.5,12.5C 49.1667,12.5 48.8333,12.5 48.5,12.5C 48.5654,12.0618 48.3988,11.7284 48,11.5C 46.9288,14.1125 46.0955,14.1125 45.5,11.5C 45.5,11.1667 45.5,10.8333 45.5,10.5C 46.7079,9.76589 48.0413,9.43255 49.5,9.5 Z"/></g>
<g><path style="opacity:1" fill="#aac2d3" d="M 22.5,10.5 C 22.1667,11.1667 21.8333,11.8333 21.5,12.5C 21.1667,12.5 20.8333,12.5 20.5,12.5C 19.4324,11.5655 18.099,11.2322 16.5,11.5C 16.5,11.1667 16.5,10.8333 16.5,10.5C 18.3093,9.70927 20.3093,9.70927 22.5,10.5 Z"/></g>
<g><path style="opacity:1" fill="#6897b4" d="M 0.5,9.5 C 1.79105,9.26269 2.79105,9.59603 3.5,10.5C 3.07418,11.5279 3.07418,12.8612 3.5,14.5C 2.79105,15.404 1.79105,15.7373 0.5,15.5C 0.67158,14.5084 0.338246,13.8417 -0.5,13.5C -0.5,12.8333 -0.5,12.1667 -0.5,11.5C 0.338246,11.1583 0.67158,10.4916 0.5,9.5 Z"/></g>
<g><path style="opacity:1" fill="#0d4176" d="M 16.5,11.5 C 18.099,11.2322 19.4324,11.5655 20.5,12.5C 19.8333,12.5 19.1667,12.5 18.5,12.5C 16.0155,13.2601 16.0155,14.2601 18.5,15.5C 19.1667,15.5 19.5,15.8333 19.5,16.5C 16.5,16.8333 15.1667,15.5 15.5,12.5C 15.5,11.8333 15.8333,11.5 16.5,11.5 Z"/></g>
<g><path style="opacity:0.925" fill="#eaf2f5" d="M 3.5,10.5 C 6.16667,11.8333 6.16667,13.1667 3.5,14.5C 3.07418,12.8612 3.07418,11.5279 3.5,10.5 Z"/></g>
<g><path style="opacity:1" fill="#4d86a8" d="M 7.5,8.5 C 9.04814,8.82124 9.71481,9.82124 9.5,11.5C 9.65055,16.6139 8.65055,17.2806 6.5,13.5C 6.5,12.8333 6.5,12.1667 6.5,11.5C 7.40397,10.791 7.73731,9.79105 7.5,8.5 Z"/></g>
<g><path style="opacity:0.603" fill="#e9f1f5" d="M 18.5,12.5 C 18.9175,13.2216 19.5842,13.7216 20.5,14C 19.5842,14.2784 18.9175,14.7784 18.5,15.5C 16.0155,14.2601 16.0155,13.2601 18.5,12.5 Z"/></g>
<g><path style="opacity:0.984" fill="#9dbdd0" d="M 18.5,12.5 C 19.1667,12.5 19.8333,12.5 20.5,12.5C 20.8333,12.5 21.1667,12.5 21.5,12.5C 21.3838,15.9103 23.0504,17.2436 26.5,16.5C 24.6409,19.0186 22.6409,19.0186 20.5,16.5C 20.1667,16.5 19.8333,16.5 19.5,16.5C 19.5,15.8333 19.1667,15.5 18.5,15.5C 18.9175,14.7784 19.5842,14.2784 20.5,14C 19.5842,13.7216 18.9175,13.2216 18.5,12.5 Z"/></g>
<g><path style="opacity:1" fill="#a2c0d2" d="M 31.5,11.5 C 32.1667,10.1667 32.8333,10.1667 33.5,11.5C 33.5,13.1667 33.5,14.8333 33.5,16.5C 32.8333,16.5 32.1667,16.5 31.5,16.5C 31.8222,14.5248 31.8222,12.8582 31.5,11.5 Z"/></g>
<g><path style="opacity:1" fill="#1f5182" d="M 0.5,9.5 C 3.08041,7.98442 5.08041,8.65109 6.5,11.5C 6.5,12.1667 6.5,12.8333 6.5,13.5C 6.44312,14.609 6.10978,15.609 5.5,16.5C 3.58533,16.7845 1.91866,16.4511 0.5,15.5C 1.79105,15.7373 2.79105,15.404 3.5,14.5C 6.16667,13.1667 6.16667,11.8333 3.5,10.5C 2.79105,9.59603 1.79105,9.26269 0.5,9.5 Z"/></g>
<g><path style="opacity:1" fill="#a8c4d5" d="M 28.5,11.5 C 27.9035,12.9354 27.9035,14.602 28.5,16.5C 27.8333,16.5 27.1667,16.5 26.5,16.5C 26.7678,14.901 26.4345,13.5676 25.5,12.5C 25.5,12.1667 25.5,11.8333 25.5,11.5C 26.6522,10.375 27.6522,10.375 28.5,11.5 Z"/></g>
<g><path style="opacity:1" fill="#225384" d="M 37.5,10.5 C 39.1723,13.3371 38.5056,14.0038 35.5,12.5C 34.6143,13.325 34.281,14.325 34.5,15.5C 35.791,15.2627 36.791,15.596 37.5,16.5C 36.1667,16.5 34.8333,16.5 33.5,16.5C 33.5,14.8333 33.5,13.1667 33.5,11.5C 34.7079,10.7659 36.0413,10.4326 37.5,10.5 Z"/></g>
<g><path style="opacity:1" fill="#a8c5d5" d="M 45.5,10.5 C 45.5,10.8333 45.5,11.1667 45.5,11.5C 44.5084,11.3284 43.8417,11.6618 43.5,12.5C 43.1667,12.5 42.8333,12.5 42.5,12.5C 41.791,11.596 40.791,11.2627 39.5,11.5C 39.5,13.1667 39.5,14.8333 39.5,16.5C 38.8333,16.5 38.1667,16.5 37.5,16.5C 36.791,15.596 35.791,15.2627 34.5,15.5C 34.281,14.325 34.6143,13.325 35.5,12.5C 38.5056,14.0038 39.1723,13.3371 37.5,10.5C 40.272,9.23293 42.9387,9.23293 45.5,10.5 Z"/></g>
<g><path style="opacity:1" fill="#094076" d="M 42.5,12.5 C 41.8333,12.5 41.5,12.8333 41.5,13.5C 40.8333,14.5 40.1667,15.5 39.5,16.5C 39.5,14.8333 39.5,13.1667 39.5,11.5C 40.791,11.2627 41.791,11.596 42.5,12.5 Z"/></g>
<g><path style="opacity:0.714" fill="#e1ebf0" d="M -0.5,13.5 C 0.338246,13.8417 0.67158,14.5084 0.5,15.5C 1.91866,16.4511 3.58533,16.7845 5.5,16.5C 3.73535,17.4614 1.73535,17.7947 -0.5,17.5C -0.5,16.1667 -0.5,14.8333 -0.5,13.5 Z"/></g>
<g><path style="opacity:1" fill="#4b759c" d="M 28.5,11.5 C 29.2216,11.9175 29.7216,12.5842 30,13.5C 30.2784,12.5842 30.7784,11.9175 31.5,11.5C 31.8222,12.8582 31.8222,14.5248 31.5,16.5C 30.5,17.8333 29.5,17.8333 28.5,16.5C 27.9035,14.602 27.9035,12.9354 28.5,11.5 Z"/></g>
<g><path style="opacity:1" fill="#134d7f" d="M 43.5,12.5 C 43.8417,11.6618 44.5084,11.3284 45.5,11.5C 46.0955,14.1125 46.9288,14.1125 48,11.5C 48.3988,11.7284 48.5654,12.0618 48.5,12.5C 48.0383,14.7567 47.0383,16.7567 45.5,18.5C 45.9107,16.3904 45.244,14.3904 43.5,12.5 Z"/></g>
<g><path style="opacity:1" fill="#2d638f" d="M 14.5,12.5 C 13.7611,12.369 13.0944,12.5357 12.5,13C 14.3115,14.0407 14.6448,15.2073 13.5,16.5C 10.4017,16.5875 10.0684,16.0875 12.5,15C 11.1772,14.1841 10.5106,13.0174 10.5,11.5C 12.2633,10.0462 13.5967,10.3796 14.5,12.5 Z"/></g>
<g><path style="opacity:0.457" fill="#cedee7" d="M 14.5,12.5 C 14.8333,12.5 15.1667,12.5 15.5,12.5C 15.1667,15.5 16.5,16.8333 19.5,16.5C 19.8333,16.5 20.1667,16.5 20.5,16.5C 20.189,17.4778 19.5223,18.1445 18.5,18.5C 16.9291,17.6906 15.2624,17.3573 13.5,17.5C 13.5,17.1667 13.5,16.8333 13.5,16.5C 14.6448,15.2073 14.3115,14.0407 12.5,13C 13.0944,12.5357 13.7611,12.369 14.5,12.5 Z"/></g>
<g><path style="opacity:1" fill="#214d80" d="M 22.5,10.5 C 23.791,10.2627 24.791,10.596 25.5,11.5C 25.5,11.8333 25.5,12.1667 25.5,12.5C 26.4345,13.5676 26.7678,14.901 26.5,16.5C 23.0504,17.2436 21.3838,15.9103 21.5,12.5C 21.8333,11.8333 22.1667,11.1667 22.5,10.5 Z"/></g>
<g><path style="opacity:0.78" fill="#d5e4eb" d="M 25.5,12.5 C 25.0478,15.6741 24.0478,16.0075 22.5,13.5C 23.325,12.6143 24.325,12.281 25.5,12.5 Z"/></g>
<g><path style="opacity:0.725" fill="#d2e1e9" d="M 9.5,11.5 C 9.83333,11.5 10.1667,11.5 10.5,11.5C 10.5106,13.0174 11.1772,14.1841 12.5,15C 10.0684,16.0875 10.4017,16.5875 13.5,16.5C 13.5,16.8333 13.5,17.1667 13.5,17.5C 13.44,18.0431 13.1067,18.3764 12.5,18.5C 10.1369,17.8298 7.80356,17.1632 5.5,16.5C 6.10978,15.609 6.44312,14.609 6.5,13.5C 8.65055,17.2806 9.65055,16.6139 9.5,11.5 Z"/></g>
<g><path style="opacity:0.91" fill="#d1dfe8" d="M 41.5,13.5 C 41.5,14.8333 41.5,16.1667 41.5,17.5C 39.4086,17.3184 37.4086,17.6518 35.5,18.5C 34.4777,18.1445 33.811,17.4778 33.5,16.5C 34.8333,16.5 36.1667,16.5 37.5,16.5C 38.1667,16.5 38.8333,16.5 39.5,16.5C 40.1667,15.5 40.8333,14.5 41.5,13.5 Z"/></g>
<g><path style="opacity:0.788" fill="#e8eff4" d="M 42.5,12.5 C 42.8333,12.5 43.1667,12.5 43.5,12.5C 45.244,14.3904 45.9107,16.3904 45.5,18.5C 47.0383,16.7567 48.0383,14.7567 48.5,12.5C 48.8333,12.5 49.1667,12.5 49.5,12.5C 49.5,13.5 49.5,14.5 49.5,15.5C 48.6505,17.5001 47.1505,18.8334 45,19.5C 43.6244,19.3158 42.7911,18.6491 42.5,17.5C 42.1667,17.5 41.8333,17.5 41.5,17.5C 41.5,16.1667 41.5,14.8333 41.5,13.5C 41.5,12.8333 41.8333,12.5 42.5,12.5 Z M 42.5,17.5 C 42.2105,13.446 42.8771,12.946 44.5,16C 43.9558,16.7172 43.2891,17.2172 42.5,17.5 Z"/></g>
</svg>
