<?xml version="1.0" encoding="UTF-8"?>
<!DOCTYPE svg PUBLIC "-//W3C//DTD SVG 1.1//EN" "http://www.w3.org/Graphics/SVG/1.1/DTD/svg11.dtd">
<svg xmlns="http://www.w3.org/2000/svg" version="1.1" width="50px" height="28px" style="shape-rendering:geometricPrecision; text-rendering:geometricPrecision; image-rendering:optimizeQuality; fill-rule:evenodd; clip-rule:evenodd" xmlns:xlink="http://www.w3.org/1999/xlink">
<g><path style="opacity:0.687" fill="#fefefe" d="M 28.5,9.5 C 28.5,9.16667 28.5,8.83333 28.5,8.5C 28.5,8.16667 28.5,7.83333 28.5,7.5C 29.1667,7.5 29.5,7.16667 29.5,6.5C 29.1583,5.66175 28.4916,5.32842 27.5,5.5C 34.6099,5.37119 41.9432,5.37119 49.5,5.5C 49.5,6.83333 49.5,8.16667 49.5,9.5C 45.2163,9.21619 40.8829,9.21619 36.5,9.5C 38.3348,10.4277 38.6682,11.5944 37.5,13C 38.0712,14.2051 38.7379,15.3717 39.5,16.5C 41.1303,15.102 42.9637,14.102 45,13.5C 46.1882,14.5634 46.6882,15.8967 46.5,17.5C 43.5371,16.2802 40.8705,16.9468 38.5,19.5C 35.8333,19.1667 33.1667,18.8333 30.5,18.5C 27.56,21.4461 25.06,21.1128 23,17.5C 23.5964,20.9423 22.0964,23.2756 18.5,24.5C 15.7845,22.7221 12.9512,21.0555 10,19.5C 6.43162,22.1315 2.93162,22.1315 -0.5,19.5C -0.5,16.5 -0.5,13.5 -0.5,10.5C 0.970083,8.84866 2.30342,7.01533 3.5,5C 6.86702,1.92598 10.367,1.75931 14,4.5C 14.49,5.79323 14.6567,7.12656 14.5,8.5C 9.0454,9.11905 6.21206,12.1191 6,17.5C 8.71123,14.9579 11.2112,12.2912 13.5,9.5C 14.8805,9.99962 15.5472,10.9996 15.5,12.5C 13.4225,17.5663 14.7558,19.0663 19.5,17C 15.6398,12.8672 15.8064,9.03391 20,5.5C 21.8098,7.48438 21.9765,9.65105 20.5,12C 20.7804,13.395 21.4471,14.5617 22.5,15.5C 23.8064,14.0878 24.6397,12.4211 25,10.5C 26.0113,9.66337 27.1779,9.33003 28.5,9.5 Z M 28.5,9.5 C 36.0621,7.01594 36.8954,8.34927 31,13.5C 30.5172,14.448 30.3505,15.448 30.5,16.5C 29.5,16.5 28.5,16.5 27.5,16.5C 27.6741,14.139 28.0074,11.8056 28.5,9.5 Z"/></g>
<g><path style="opacity:1" fill="#92cbc5" d="M 27.5,5.5 C 27.4431,6.60895 27.1098,7.60895 26.5,8.5C 25.1148,7.0527 25.4482,6.0527 27.5,5.5 Z"/></g>
<g><path style="opacity:0.706" fill="#38788f" d="M 27.5,5.5 C 28.4916,5.32842 29.1583,5.66175 29.5,6.5C 28.8333,6.5 28.5,6.83333 28.5,7.5C 28.5,7.83333 28.5,8.16667 28.5,8.5C 27.8333,8.5 27.1667,8.5 26.5,8.5C 27.1098,7.60895 27.4431,6.60895 27.5,5.5 Z"/></g>
</svg>
