<?xml version="1.0" encoding="UTF-8"?>
<!DOCTYPE svg PUBLIC "-//W3C//DTD SVG 1.1//EN" "http://www.w3.org/Graphics/SVG/1.1/DTD/svg11.dtd">
<svg xmlns="http://www.w3.org/2000/svg" version="1.1" width="50px" height="28px" style="shape-rendering:geometricPrecision; text-rendering:geometricPrecision; image-rendering:optimizeQuality; fill-rule:evenodd; clip-rule:evenodd" xmlns:xlink="http://www.w3.org/1999/xlink">
<g><path style="opacity:0.601" fill="#fefffe" d="M 49.5,10.5 C 49.5,11.1667 49.5,11.8333 49.5,12.5C 48.1362,18.8574 46.9696,18.8574 46,12.5C 44.6896,14.1322 44.1896,15.7988 44.5,17.5C 43.8076,16.9747 43.3076,16.3081 43,15.5C 42,18.1667 41,18.1667 40,15.5C 37.5652,18.2277 35.5652,17.8943 34,14.5C 32.3945,16.2477 30.3945,17.2477 28,17.5C 25.683,16.8382 23.5164,16.8382 21.5,17.5C 20.3527,17.1822 19.5194,16.5156 19,15.5C 18,18.1667 17,18.1667 16,15.5C 15.6924,16.3081 15.1924,16.9747 14.5,17.5C 9.73402,17.1397 4.73402,17.1397 -0.5,17.5C -0.5,16.8333 -0.5,16.1667 -0.5,15.5C 0.833333,15.1667 0.833333,14.8333 -0.5,14.5C -0.5,13.8333 -0.5,13.1667 -0.5,12.5C 3.00246,11.0825 6.66913,10.4158 10.5,10.5C 10.8333,15.8333 11.1667,15.8333 11.5,10.5C 24.2159,10.679 36.8826,10.679 49.5,10.5 Z M 20.5,12.5 C 22.337,12.6395 22.6704,13.3061 21.5,14.5C 20.7025,14.0431 20.3691,13.3764 20.5,12.5 Z M 36.5,12.5 C 38.337,12.6395 38.6704,13.3061 37.5,14.5C 36.7025,14.0431 36.3691,13.3764 36.5,12.5 Z"/></g>
</svg>
