<?xml version="1.0" encoding="UTF-8"?>
<!DOCTYPE svg PUBLIC "-//W3C//DTD SVG 1.1//EN" "http://www.w3.org/Graphics/SVG/1.1/DTD/svg11.dtd">
<svg xmlns="http://www.w3.org/2000/svg" version="1.1" width="50px" height="28px" style="shape-rendering:geometricPrecision; text-rendering:geometricPrecision; image-rendering:optimizeQuality; fill-rule:evenodd; clip-rule:evenodd" xmlns:xlink="http://www.w3.org/1999/xlink">
<g><path style="opacity:0.798" fill="#fefffe" d="M -0.5,7.5 C 0.833333,7.5 2.16667,7.5 3.5,7.5C 3.83333,12.8333 4.16667,12.8333 4.5,7.5C 8.9971,6.94451 13.1638,7.61118 17,9.5C 22.7841,5.86052 26.6175,7.19386 28.5,13.5C 27.4216,19.0945 24.0883,20.9278 18.5,19C 18,18.5 17.5,18 17,17.5C 13.1638,19.3888 8.9971,20.0555 4.5,19.5C 4.16667,14.1667 3.83333,14.1667 3.5,19.5C 2.16667,19.5 0.833333,19.5 -0.5,19.5C -0.5,15.5 -0.5,11.5 -0.5,7.5 Z"/></g>
<g><path style="opacity:0.787" fill="#1c56a2" d="M 46.5,7.5 C 46.8333,8.5 47.5,9.16667 48.5,9.5C 48.5,10.1667 48.8333,10.5 49.5,10.5C 49.5,12.5 49.5,14.5 49.5,16.5C 48.3734,17.1217 47.3734,17.955 46.5,19C 42.5138,19.4988 38.5138,19.6655 34.5,19.5C 34.1667,14.1667 33.8333,14.1667 33.5,19.5C 32.1667,19.5 30.8333,19.5 29.5,19.5C 29.5,15.5 29.5,11.5 29.5,7.5C 30.8333,7.5 32.1667,7.5 33.5,7.5C 33.8333,12.8333 34.1667,12.8333 34.5,7.5C 38.5,7.5 42.5,7.5 46.5,7.5 Z"/></g>
<g><path style="opacity:0.047" fill="#241b19" d="M 46.5,7.5 C 47.5,7.5 48.5,7.5 49.5,7.5C 49.5,8.16667 49.5,8.83333 49.5,9.5C 49.1667,9.5 48.8333,9.5 48.5,9.5C 47.5,9.16667 46.8333,8.5 46.5,7.5 Z"/></g>
</svg>
