<?xml version="1.0" encoding="UTF-8"?>
<!DOCTYPE svg PUBLIC "-//W3C//DTD SVG 1.1//EN" "http://www.w3.org/Graphics/SVG/1.1/DTD/svg11.dtd">
<svg xmlns="http://www.w3.org/2000/svg" version="1.1" width="50px" height="17px" style="shape-rendering:geometricPrecision; text-rendering:geometricPrecision; image-rendering:optimizeQuality; fill-rule:evenodd; clip-rule:evenodd" xmlns:xlink="http://www.w3.org/1999/xlink">
<g><path style="opacity:0.669" fill="#fefffe" d="M -0.5,1.5 C 4.73402,2.36408 10.0674,2.36408 15.5,1.5C 15.6646,4.51838 15.498,7.51838 15,10.5C 13.6439,11.3802 12.1439,11.7135 10.5,11.5C 10.5,12.8333 10.5,14.1667 10.5,15.5C 6.83333,15.5 3.16667,15.5 -0.5,15.5C -0.5,13.8333 -0.5,12.1667 -0.5,10.5C 1.4109,10.5743 2.57756,11.5743 3,13.5C 3.66934,10.6551 2.50267,8.98843 -0.5,8.5C -0.5,6.16667 -0.5,3.83333 -0.5,1.5 Z M 3.5,6.5 C 2.22671,5.92317 2.22671,5.2565 3.5,4.5C 4.46295,4.96983 4.46295,5.6365 3.5,6.5 Z M 10.5,4.5 C 11.5862,4.61998 12.2528,5.28665 12.5,6.5C 12.1667,7.16667 11.8333,7.83333 11.5,8.5C 10.5713,7.31116 10.238,5.97782 10.5,4.5 Z M 3.5,6.5 C 5.80038,6.52157 6.96704,7.52157 7,9.5C 5.48155,8.83663 4.31488,7.83663 3.5,6.5 Z"/></g>
<g><path style="opacity:0.632" fill="#fffefe" d="M 38.5,5.5 C 37.4192,8.62672 36.7526,11.9601 36.5,15.5C 35.5,15.5 34.5,15.5 33.5,15.5C 31.4167,-0.259212 29.75,-0.259212 28.5,15.5C 27.5091,11.5546 27.1758,7.55461 27.5,3.5C 26.5,3.5 25.5,3.5 24.5,3.5C 24.5,7.5 24.5,11.5 24.5,15.5C 21.8333,15.5 19.1667,15.5 16.5,15.5C 16.5,10.8333 16.5,6.16667 16.5,1.5C 22.0244,2.12422 27.691,2.12422 33.5,1.5C 33.933,4.16562 34.433,6.83228 35,9.5C 35.2704,6.63826 36.1038,3.9716 37.5,1.5C 38.4287,2.68884 38.762,4.02218 38.5,5.5 Z M 19.5,4.5 C 20.2389,4.36899 20.9056,4.53566 21.5,5C 20.7145,7.90845 20.3812,10.7418 20.5,13.5C 19.5159,10.5719 19.1826,7.57186 19.5,4.5 Z"/></g>
<g><path style="opacity:0.546" fill="#a20000" d="M 46.5,3.5 C 47.6491,3.79106 48.3158,4.62439 48.5,6C 48.6134,7.69915 47.9468,8.86581 46.5,9.5C 46.5,7.5 46.5,5.5 46.5,3.5 Z"/></g>
<g><path style="opacity:0.708" fill="#f4091c" d="M 42.5,1.5 C 42.5,2.83333 42.5,4.16667 42.5,5.5C 42.38,6.58617 41.7133,7.25284 40.5,7.5C 39.2867,7.25284 38.62,6.58617 38.5,5.5C 39.4725,3.86076 40.8058,2.52743 42.5,1.5 Z"/></g>
<g><path style="opacity:0.656" fill="#ce0206" d="M 42.5,1.5 C 44.3797,1.22911 45.713,1.89578 46.5,3.5C 46.5,5.5 46.5,7.5 46.5,9.5C 46.0472,10.4584 45.3805,11.2917 44.5,12C 45.0944,12.4643 45.7611,12.631 46.5,12.5C 46.5,13.5 46.5,14.5 46.5,15.5C 45.1667,15.5 43.8333,15.5 42.5,15.5C 42.5,13.8333 42.5,12.1667 42.5,10.5C 42.7031,8.95568 43.3698,7.62235 44.5,6.5C 44.0431,5.70245 43.3764,5.36912 42.5,5.5C 42.5,4.16667 42.5,2.83333 42.5,1.5 Z"/></g>
<g><path style="opacity:0.528" fill="#fa0e25" d="M 46.5,12.5 C 49.1667,13.5 49.1667,14.5 46.5,15.5C 46.5,14.5 46.5,13.5 46.5,12.5 Z"/></g>
<g><path style="opacity:1" fill="#f20a1e" d="M 42.5,10.5 C 42.5,12.1667 42.5,13.8333 42.5,15.5C 41.1266,15.6567 39.7932,15.49 38.5,15C 40.0703,13.6032 41.4036,12.1032 42.5,10.5 Z"/></g>
</svg>
