<?xml version="1.0" encoding="UTF-8"?>
<!DOCTYPE svg PUBLIC "-//W3C//DTD SVG 1.1//EN" "http://www.w3.org/Graphics/SVG/1.1/DTD/svg11.dtd">
<svg xmlns="http://www.w3.org/2000/svg" version="1.1" width="50px" height="23px" style="shape-rendering:geometricPrecision; text-rendering:geometricPrecision; image-rendering:optimizeQuality; fill-rule:evenodd; clip-rule:evenodd" xmlns:xlink="http://www.w3.org/1999/xlink">
<g><path style="opacity:0.727" fill="#fefffe" d="M -0.5,2.5 C 2.51838,2.33537 5.51838,2.50204 8.5,3C 9.42308,5.04083 9.75642,7.2075 9.5,9.5C 7.07714,9.57643 5.24381,8.57643 4,6.5C 3.5,6.83333 3,7.16667 2.5,7.5C 4.53023,9.60703 6.69689,11.607 9,13.5C 9.66667,15.8333 9.66667,18.1667 9,20.5C 5.94325,21.4505 2.77659,21.7839 -0.5,21.5C -0.5,18.8333 -0.5,16.1667 -0.5,13.5C 1.12744,15.4637 3.12744,16.797 5.5,17.5C 4.54539,14.5452 2.54539,12.5452 -0.5,11.5C -0.5,8.5 -0.5,5.5 -0.5,2.5 Z"/></g>
<g><path style="opacity:0.72" fill="#fefffe" d="M 10.5,2.5 C 13.7766,2.21614 16.9433,2.54948 20,3.5C 20.6667,7.16667 20.6667,10.8333 20,14.5C 17.9307,15.2638 15.764,15.7638 13.5,16C 14.4061,17.6995 14.7394,19.5328 14.5,21.5C 13.1667,21.5 11.8333,21.5 10.5,21.5C 10.5,15.1667 10.5,8.83333 10.5,2.5 Z M 13.5,7.5 C 14.209,6.59603 15.209,6.26269 16.5,6.5C 16.5,8.16667 16.5,9.83333 16.5,11.5C 15.448,11.6495 14.448,11.4828 13.5,11C 14.7911,9.70833 14.7911,8.54166 13.5,7.5 Z"/></g>
<g><path style="opacity:0.714" fill="#fefffe" d="M 21.5,2.5 C 30.2385,0.0727634 33.5719,3.23943 31.5,12C 33.5719,20.7606 30.2385,23.9272 21.5,21.5C 21.5,15.1667 21.5,8.83333 21.5,2.5 Z M 25.5,6.5 C 26.7868,7.87135 27.4535,9.70469 27.5,12C 27.1667,13.8333 26.8333,15.6667 26.5,17.5C 25.5108,13.8927 25.1774,10.226 25.5,6.5 Z"/></g>
<g><path style="opacity:0.662" fill="#fefffe" d="M 49.5,2.5 C 49.5,4.5 49.5,6.5 49.5,8.5C 48.6761,12.9178 47.3427,17.2511 45.5,21.5C 44.914,21.2907 44.414,20.9574 44,20.5C 43,15.1667 42,9.83333 41,4.5C 39.9887,5.33663 38.8221,5.66997 37.5,5.5C 36.8333,26.8333 36.1667,26.8333 35.5,5.5C 34.5,5.5 33.5,5.5 32.5,5.5C 32.5,4.5 32.5,3.5 32.5,2.5C 36.1667,2.5 39.8333,2.5 43.5,2.5C 44.0448,5.8131 44.5448,9.14643 45,12.5C 46.2012,9.83521 47.0345,7.00187 47.5,4C 47.8361,2.97008 48.5028,2.47008 49.5,2.5 Z"/></g>
</svg>
