<?xml version="1.0" encoding="UTF-8"?>
<!DOCTYPE svg PUBLIC "-//W3C//DTD SVG 1.1//EN" "http://www.w3.org/Graphics/SVG/1.1/DTD/svg11.dtd">
<svg xmlns="http://www.w3.org/2000/svg" version="1.1" width="50px" height="28px" style="shape-rendering:geometricPrecision; text-rendering:geometricPrecision; image-rendering:optimizeQuality; fill-rule:evenodd; clip-rule:evenodd" xmlns:xlink="http://www.w3.org/1999/xlink">
<g><path style="opacity:0.635" fill="#fefefe" d="M 17.5,14.5 C 16.596,15.209 16.2627,16.209 16.5,17.5C 14.8762,17.6399 13.7096,16.9733 13,15.5C 11.6667,18.1667 10.3333,18.1667 9,15.5C 6.91785,18.1496 5.25119,17.8163 4,14.5C 3.51722,15.448 3.35055,16.448 3.5,17.5C 2.16667,17.5 0.833333,17.5 -0.5,17.5C -0.5,17.1667 -0.5,16.8333 -0.5,16.5C 0.833333,15.8333 0.833333,15.1667 -0.5,14.5C -0.5,13.5 -0.5,12.5 -0.5,11.5C 1.04432,11.2969 2.37765,10.6302 3.5,9.5C 3.8586,10.9172 5.02527,12.2505 7,13.5C 8.4053,11.893 10.072,10.5597 12,9.5C 12.9454,9.90536 13.6121,10.572 14,11.5C 14.7096,10.0267 15.8762,9.36007 17.5,9.5C 17.5,11.1667 17.5,12.8333 17.5,14.5 Z"/></g>
<g><path style="opacity:0.568" fill="#0077b7" d="M 49.5,9.5 C 49.5,11.5 49.5,13.5 49.5,15.5C 44.5891,16.2353 39.5891,16.5686 34.5,16.5C 33.2011,15.91 32.3678,14.91 32,13.5C 30.0121,16.8382 27.6788,17.1715 25,14.5C 23.9826,17.028 22.8159,17.028 21.5,14.5C 19.5804,18.193 18.2471,18.193 17.5,14.5C 18.4511,13.0813 18.7845,11.4147 18.5,9.5C 20.1238,9.36007 21.2904,10.0267 22,11.5C 23.3333,8.83333 24.6667,8.83333 26,11.5C 28.456,9.67869 31.2893,9.01202 34.5,9.5C 34.8333,13.5 35.1667,13.5 35.5,9.5C 40.1667,9.5 44.8333,9.5 49.5,9.5 Z"/></g>
</svg>
